# xmcd
#
# Track frame offsets:
#	150
#	8371
#	23475
#	43201
#	60617
#	83579
#	99939
#	120452
#	134688
#	153454
#	173738
#	187751
#	199201
#	210908
#	225691
#	243397
#	260919
#	278723
#	309673
#
# Disc length: 4539 seconds
#
# Revision: 1
# Processed by: cddbd v1.5.2PL0 Copyright (c) Steve Scherf et al.
# Submitted via: audiograbber 1.83.01
#
DISCID=f311b913
DTITLE=Eric Bibb - Compilation
DYEAR=1900
DGENRE=Blues
TTITLE0=Guru Blues Man
TTITLE1=World War Blues
TTITLE2=The Light Was Worth The Candle
TTITLE3=Sing Your Song
TTITLE4=Shingle By Shingle
TTITLE5=New Shoes
TTITLE6=Keep My Cool
TTITLE7=I Need A Vacation
TTITLE8=I Heard The Angles Singing
TTITLE9=I Am Blessed
TTITLE10=Gunna Walk This Road
TTITLE11=
TTITLE12=Catch Up To Your Heart
TTITLE13=Angle
TTITLE14=A Simple Song
TTITLE15=Loansome Vally
TTITLE16=Dont Let Nobody Turn You Around
TTITLE17=Dont Ever Let Nobody
TTITLE18=
EXTD=
EXTT0=
EXTT1=
EXTT2=
EXTT3=
EXTT4=
EXTT5=
EXTT6=
EXTT7=
EXTT8=
EXTT9=
EXTT10=
EXTT11=
EXTT12=
EXTT13=
EXTT14=
EXTT15=
EXTT16=
EXTT17=
EXTT18=
PLAYORDER=
